<svg width="25" height="25" viewBox="0 0 25 25" fill="none" xmlns="http://www.w3.org/2000/svg">
<path fill-rule="evenodd" clip-rule="evenodd" d="M16.5254 2.11864H8.47458C4.96429 2.11864 2.11864 4.96429 2.11864 8.47458V16.5254C2.11864 20.0357 4.96429 22.8814 8.47458 22.8814H16.5254C20.0357 22.8814 22.8814 20.0357 22.8814 16.5254V8.47458C22.8814 4.96429 20.0357 2.11864 16.5254 2.11864ZM8.47458 0C3.7942 0 0 3.7942 0 8.47458V16.5254C0 21.2058 3.7942 25 8.47458 25H16.5254C21.2058 25 25 21.2058 25 16.5254V8.47458C25 3.7942 21.2058 0 16.5254 0H8.47458Z" fill="#BB9645"/>
<path d="M12.2514 16.0075C11.6294 16.0075 11.1137 15.5007 11.1973 14.8844C11.209 14.7981 11.2222 14.713 11.2368 14.629C11.3179 14.2001 11.4667 13.7917 11.6832 13.4037C11.8658 13.0361 12.0789 12.74 12.3224 12.5153C12.5727 12.2839 12.8433 12.0592 13.1342 11.8414C13.4318 11.6167 13.743 11.3308 14.0676 10.9837C14.3382 10.6841 14.5175 10.3812 14.6054 10.0749C14.7001 9.76855 14.7475 9.43839 14.7475 9.08441C14.7475 8.82573 14.717 8.58407 14.6561 8.35943C14.5953 8.13479 14.4938 7.94078 14.3517 7.7774C14.1353 7.50511 13.8613 7.3145 13.5299 7.20558C13.1984 7.08986 12.8534 7.03199 12.4949 7.03199C12.1702 7.03199 11.8591 7.07624 11.5614 7.16474C11.2706 7.25323 11.0271 7.38938 10.8309 7.57318C10.6212 7.75017 10.4656 7.97141 10.3641 8.2369C10.3107 8.38297 10.2734 8.85246 10.2523 9.2887C10.2297 9.75385 9.92585 10.1702 9.48117 10.3085C8.77355 10.5286 8.06022 9.96131 8.13769 9.22431C8.22111 8.43072 8.33755 7.59565 8.48703 7.28727C8.75761 6.72907 9.12289 6.27638 9.58286 5.9292C9.9752 5.61607 10.4216 5.38462 10.9222 5.23485C11.4228 5.07828 11.9233 5 12.4239 5C13.1409 5 13.8174 5.11232 14.4532 5.33696C15.0958 5.56161 15.6302 5.9258 16.0564 6.42954C16.3675 6.78353 16.6009 7.18856 16.7565 7.64466C16.9188 8.09394 17 8.56025 17 9.04357C17 9.69027 16.8613 10.2893 16.584 10.8407C16.3134 11.3921 15.9651 11.8958 15.5389 12.3519C15.3157 12.5902 15.0891 12.808 14.8591 13.0054C14.6291 13.1961 14.416 13.3833 14.2198 13.5671C14.0237 13.7509 13.8613 13.9517 13.7328 14.1695C13.5502 14.4826 13.4453 14.7651 13.4183 15.017C13.3582 15.5614 12.9337 16.0075 12.3859 16.0075H12.2514ZM12.2565 20C11.6373 20 11.1353 19.498 11.1353 18.8788V18.6501C11.1353 18.0309 11.6373 17.5289 12.2565 17.5289C12.8757 17.5289 13.3777 18.0309 13.3777 18.6501V18.8788C13.3777 19.498 12.8757 20 12.2565 20Z" fill="#BB9645"/>
</svg>
